<?xml version="1.0" encoding="UTF-8" standalone="no"?>
<!DOCTYPE svg PUBLIC "-//W3C//DTD SVG 1.1//EN" "http://www.w3.org/Graphics/SVG/1.1/DTD/svg11.dtd">
<svg width="100%" height="100%" viewBox="0 0 900 700" version="1.1" xmlns="http://www.w3.org/2000/svg" xmlns:xlink="http://www.w3.org/1999/xlink" xml:space="preserve" xmlns:serif="http://www.serif.com/" style="fill-rule:evenodd;clip-rule:evenodd;stroke-linejoin:bevel;stroke-miterlimit:10;">
    <g id="_x32__этаж">
        <g id="Другое">
            <path d="M853,103.3L853,392.1L875.4,392.1L875.4,440.7L851.1,440.7L851.1,619.6L729.5,619.6L729.5,522.3L557.4,522.3L557.4,498L516.6,498L516.6,689.6L420.9,689.6L420.9,498L399.8,498L399.8,553.1L371.8,553.1L371.8,477L274.5,477L274.5,536L144.2,536L144.2,453.3L397,453.3L397,234.5L356.2,234.5L356.2,170.4L476.7,170.4L476.7,370.7L522.4,370.7L522.4,343.4L729.5,343.4L729.5,170.4L582.1,170.4L582.1,49.8L729.5,49.8L729.5,10L852,10L877.3,38.1L877.3,103.3L853,103.3Z" style="fill:rgb(241,243,244);fill-rule:nonzero;stroke:black;stroke-width:0.25px;"/>
            <rect x="109.4" y="477" width="34.8" height="44.1" style="fill:rgb(121,134,203);stroke:black;stroke-width:0.5px;"/>
            <rect x="352.8" y="135.4" width="44.2" height="35" style="fill:rgb(121,134,203);stroke:black;stroke-width:0.5px;"/>
            <rect x="399.8" y="498" width="21.1" height="55.1" style="fill:rgb(121,134,203);stroke:black;stroke-width:0.5px;"/>
            <path d="M144.2,536L144.2,580.7L113.8,580.7L113.8,545.6L122.4,545.6L122.4,536L144.2,536Z" style="fill:rgb(238,103,92);fill-rule:nonzero;stroke:black;stroke-width:0.5px;"/>
            <path d="M113.8,545.6L113.8,580.7L81,580.7L81,536L105.3,536L105.3,545.6L113.8,545.6Z" style="fill:rgb(88,91,165);fill-rule:nonzero;stroke:black;stroke-width:0.5px;"/>
            <rect x="105.3" y="536" width="17.1" height="9.6" style="fill:rgb(241,243,244);stroke:black;stroke-width:0.5px;"/>
            <rect x="447.2" y="135.4" width="44.2" height="35" style="fill:rgb(121,134,203);stroke:black;stroke-width:0.5px;"/>
            <rect x="371.8" y="553.1" width="49.1" height="63.6" style="fill:rgb(205,233,237);stroke:black;stroke-width:0.5px;"/>
            <rect x="274.5" y="477" width="97.3" height="139.8" style="fill:rgb(255,251,240);stroke:black;stroke-width:0.5px;"/>
            <rect x="274.5" y="616.7" width="146.4" height="72.9" style="fill:rgb(255,251,240);stroke:black;stroke-width:0.5px;"/>
            <rect x="22.7" y="170.4" width="58.3" height="69" style="fill:rgb(255,251,240);stroke:black;stroke-width:0.5px;"/>
            <rect x="22.7" y="239.4" width="58.3" height="68.1" style="fill:rgb(255,251,240);stroke:black;stroke-width:0.5px;"/>
            <rect x="22.7" y="307.5" width="58.3" height="65.1" style="fill:rgb(255,251,240);stroke:black;stroke-width:0.5px;"/>
            <rect x="22.7" y="372.6" width="58.3" height="68.1" style="fill:rgb(255,251,240);stroke:black;stroke-width:0.5px;"/>
            <rect x="22.7" y="440.7" width="58.3" height="66.1" style="fill:rgb(255,251,240);stroke:black;stroke-width:0.5px;"/>
            <rect x="22.7" y="506.8" width="58.3" height="73.9" style="fill:rgb(255,251,240);stroke:black;stroke-width:0.5px;"/>
            <rect x="450.5" y="49.8" width="131.7" height="62.2" style="fill:rgb(255,251,240);stroke:black;stroke-width:0.5px;"/>
            <rect x="384.5" y="49.8" width="66" height="62.2" style="fill:rgb(255,251,240);stroke:black;stroke-width:0.5px;"/>
            <rect x="289.8" y="49.8" width="94.7" height="62.2" style="fill:rgb(255,251,240);stroke:black;stroke-width:0.5px;"/>
            <rect x="243.9" y="49.8" width="45.9" height="62.2" style="fill:rgb(255,251,240);stroke:black;stroke-width:0.5px;"/>
            <rect x="217.8" y="49.8" width="26.1" height="62.2" style="fill:rgb(255,251,240);stroke:black;stroke-width:0.5px;"/>
            <rect x="145.8" y="49.8" width="72" height="62.2" style="fill:rgb(255,251,240);stroke:black;stroke-width:0.5px;"/>
            <rect x="81" y="49.8" width="64.8" height="62.2" style="fill:rgb(255,251,240);stroke:black;stroke-width:0.5px;"/>
            <rect x="22.7" y="49.8" width="58.3" height="120.6" style="fill:rgb(255,251,240);stroke:black;stroke-width:0.5px;"/>
            <rect x="276.1" y="134.8" width="76.7" height="35.5" style="fill:rgb(255,251,240);stroke:black;stroke-width:0.5px;"/>
            <rect x="221.6" y="134.8" width="54.5" height="35.5" style="fill:rgb(255,251,240);stroke:black;stroke-width:0.5px;"/>
            <rect x="108.2" y="170.4" width="36" height="69.6" style="fill:rgb(255,251,240);stroke:black;stroke-width:0.5px;"/>
            <rect x="108.2" y="240" width="36" height="68.2" style="fill:rgb(255,251,240);stroke:black;stroke-width:0.5px;"/>
            <rect x="491.4" y="112" width="90.7" height="58.3" style="fill:rgb(255,251,240);stroke:black;stroke-width:0.5px;"/>
            <path d="M144.2,308.2L144.2,477L109.4,477L109.4,521.1L144.2,521.1L144.2,536L81,536L81,170.4L108.2,170.4L108.2,308.2L144.2,308.2Z" style="fill:rgb(205,233,237);fill-rule:nonzero;stroke:black;stroke-width:0.5px;"/>
            <path d="M491.4,112L491.4,135.4L447.2,135.4L447.2,170.4L397,170.4L397,135.4L352.8,135.4L352.8,134.8L221.6,134.8L221.6,170.4L81,170.4L81,112L491.4,112Z" style="fill:rgb(205,233,237);fill-rule:nonzero;stroke:black;stroke-width:0.5px;"/>
        </g>
        <g id="Двери_00000070804580386585917970000018425015208090216590_">
            <rect x="80.3" y="519.6" width="1.5" height="6.9" style="fill:rgb(245,240,160);stroke:black;stroke-width:0.25px;stroke-linejoin:round;"/>
            <path d="M98.1,170.4C98.1,170.8 97.8,171.1 97.4,171.1L92,171.1C91.6,171.1 91.3,170.8 91.3,170.4C91.3,170 91.6,169.7 92,169.7L97.4,169.7C97.7,169.6 98.1,170 98.1,170.4Z" style="fill:rgb(109,195,190);fill-rule:nonzero;stroke:black;stroke-width:0.25px;stroke-linejoin:round;"/>
            <path d="M130.2,477C130.2,477.4 129.9,477.7 129.5,477.7L124.1,477.7C123.7,477.7 123.4,477.4 123.4,477C123.4,476.6 123.7,476.3 124.1,476.3L129.5,476.3C129.9,476.2 130.2,476.6 130.2,477Z" style="fill:rgb(114,182,43);fill-rule:nonzero;stroke:black;stroke-width:0.25px;stroke-linejoin:round;"/>
            <path d="M96.6,536C96.6,536.4 96.3,536.7 95.9,536.7L90.5,536.7C90.1,536.7 89.8,536.4 89.8,536C89.8,535.6 90.1,535.3 90.5,535.3L95.9,535.3C96.2,535.2 96.6,535.5 96.6,536Z" style="fill:rgb(210,145,191);fill-rule:nonzero;stroke:black;stroke-width:0.25px;stroke-linejoin:round;"/>
            <path d="M136.7,536C136.7,536.4 136.4,536.7 136,536.7L130.6,536.7C130.2,536.7 129.9,536.4 129.9,536C129.9,535.6 130.2,535.3 130.6,535.3L136,535.3C136.4,535.2 136.7,535.5 136.7,536Z" style="fill:rgb(210,145,191);fill-rule:nonzero;stroke:black;stroke-width:0.25px;stroke-linejoin:round;"/>
            <rect x="80.3" y="446.5" width="1.5" height="6.9" style="fill:rgb(245,240,160);stroke:black;stroke-width:0.25px;stroke-linejoin:round;"/>
            <rect x="80.3" y="377.5" width="1.5" height="6.9" style="fill:rgb(245,240,160);stroke:black;stroke-width:0.25px;stroke-linejoin:round;"/>
            <rect x="80.3" y="314.2" width="1.5" height="6.9" style="fill:rgb(245,240,160);stroke:black;stroke-width:0.25px;stroke-linejoin:round;"/>
            <rect x="107.5" y="293.3" width="1.5" height="6.9" style="fill:rgb(245,240,160);stroke:black;stroke-width:0.25px;stroke-linejoin:round;"/>
            <rect x="80.3" y="246.4" width="1.5" height="6.9" style="fill:rgb(245,240,160);stroke:black;stroke-width:0.25px;stroke-linejoin:round;"/>
            <rect x="107.5" y="177" width="1.5" height="6.9" style="fill:rgb(245,240,160);stroke:black;stroke-width:0.25px;stroke-linejoin:round;"/>
            <rect x="107.5" y="202.5" width="1.5" height="6.9" style="fill:rgb(245,240,160);stroke:black;stroke-width:0.25px;stroke-linejoin:round;"/>
            <rect x="80.3" y="177" width="1.5" height="6.9" style="fill:rgb(245,240,160);stroke:black;stroke-width:0.25px;stroke-linejoin:round;"/>
            <g transform="matrix(-1,-1.22465e-16,1.22465e-16,-1,162.04,247.575)">
                <rect x="80.3" y="120.4" width="1.5" height="6.9" style="fill:rgb(245,240,160);stroke:black;stroke-width:0.25px;stroke-linejoin:round;"/>
            </g>
            <g transform="matrix(6.12323e-17,-1,1,6.12323e-17,21.8746,245.955)">
                <rect x="133.2" y="108.6" width="1.5" height="6.9" style="fill:rgb(245,240,160);stroke:black;stroke-width:0.25px;stroke-linejoin:round;"/>
            </g>
            <g transform="matrix(6.12323e-17,-1,1,6.12323e-17,95.7423,319.822)">
                <rect x="207" y="108.6" width="1.5" height="6.9" style="fill:rgb(245,240,160);stroke:black;stroke-width:0.25px;stroke-linejoin:round;"/>
            </g>
            <g transform="matrix(6.12323e-17,-1,1,6.12323e-17,118.79,342.87)">
                <rect x="230.1" y="108.6" width="1.5" height="6.9" style="fill:rgb(245,240,160);stroke:black;stroke-width:0.25px;stroke-linejoin:round;"/>
            </g>
            <g transform="matrix(6.12323e-17,-1,1,6.12323e-17,170.272,394.352)">
                <rect x="281.6" y="108.6" width="1.5" height="6.9" style="fill:rgb(245,240,160);stroke:black;stroke-width:0.25px;stroke-linejoin:round;"/>
            </g>
            <rect x="220.9" y="152.9" width="1.5" height="6.9" style="fill:rgb(245,240,160);stroke:black;stroke-width:0.25px;stroke-linejoin:round;"/>
            <g transform="matrix(6.12323e-17,-1,1,6.12323e-17,261.475,485.555)">
                <rect x="372.8" y="108.6" width="1.5" height="6.9" style="fill:rgb(245,240,160);stroke:black;stroke-width:0.25px;stroke-linejoin:round;"/>
            </g>
            <g transform="matrix(6.12323e-17,-1,1,6.12323e-17,205.722,475.402)">
                <rect x="339.8" y="131.4" width="1.5" height="6.9" style="fill:rgb(245,240,160);stroke:black;stroke-width:0.25px;stroke-linejoin:round;"/>
            </g>
            <g transform="matrix(6.12323e-17,-1,1,6.12323e-17,329.983,554.062)">
                <rect x="441.3" y="108.6" width="1.5" height="6.9" style="fill:rgb(245,240,160);stroke:black;stroke-width:0.25px;stroke-linejoin:round;"/>
            </g>
            <rect x="490.7" y="120.3" width="1.5" height="6.9" style="fill:rgb(245,240,160);stroke:black;stroke-width:0.25px;stroke-linejoin:round;"/>
            <g transform="matrix(6.12323e-17,-1,1,6.12323e-17,349.057,573.137)">
                <rect x="460.4" y="108.6" width="1.5" height="6.9" style="fill:rgb(245,240,160);stroke:black;stroke-width:0.25px;stroke-linejoin:round;"/>
            </g>
            <path d="M397,156C396.6,156 396.3,155.7 396.3,155.3L396.3,149.9C396.3,149.5 396.6,149.2 397,149.2C397.4,149.2 397.7,149.5 397.7,149.9L397.7,155.3C397.7,155.7 397.4,156 397,156Z" style="fill:rgb(114,182,43);fill-rule:nonzero;stroke:black;stroke-width:0.25px;stroke-linejoin:round;"/>
            <path d="M447.2,156C446.8,156 446.5,155.7 446.5,155.3L446.5,149.9C446.5,149.5 446.8,149.2 447.2,149.2C447.6,149.2 447.9,149.5 447.9,149.9L447.9,155.3C447.9,155.7 447.6,156 447.2,156Z" style="fill:rgb(114,182,43);fill-rule:nonzero;stroke:black;stroke-width:0.25px;stroke-linejoin:round;"/>
            <path d="M406.9,553.1C406.9,552.7 407.2,552.4 407.6,552.4L413,552.4C413.4,552.4 413.7,552.7 413.7,553.1C413.7,553.5 413.4,553.8 413,553.8L407.6,553.8C407.3,553.8 406.9,553.5 406.9,553.1Z" style="fill:rgb(114,182,43);fill-rule:nonzero;stroke:black;stroke-width:0.25px;stroke-linejoin:round;"/>
            <g transform="matrix(-1,-1.22465e-16,1.22465e-16,-1,743.612,1129.53)">
                <rect x="371.1" y="561.3" width="1.5" height="6.9" style="fill:rgb(245,240,160);stroke:black;stroke-width:0.25px;stroke-linejoin:round;"/>
            </g>
            <g transform="matrix(-1.83697e-16,1,-1,-1.83697e-16,1013.11,220.355)">
                <rect x="395.6" y="613.3" width="1.5" height="6.9" style="fill:rgb(245,240,160);stroke:black;stroke-width:0.25px;stroke-linejoin:round;"/>
            </g>
        </g>
    </g>
</svg>
