<?xml version="1.0" encoding="UTF-8" standalone="no"?>
<!DOCTYPE svg PUBLIC "-//W3C//DTD SVG 1.1//EN" "http://www.w3.org/Graphics/SVG/1.1/DTD/svg11.dtd">
<svg width="100%" height="100%" viewBox="0 0 900 700" version="1.1" xmlns="http://www.w3.org/2000/svg" xmlns:xlink="http://www.w3.org/1999/xlink" xml:space="preserve" xmlns:serif="http://www.serif.com/" style="fill-rule:evenodd;clip-rule:evenodd;stroke-linejoin:bevel;stroke-miterlimit:10;">
    <g id="_x31__этаж">
        <g id="Вне_корпуса">
            <path d="M875.4,392.1L875.4,440.7L851.1,440.7L851.1,445.2L798.5,445.2L798.5,170.4L853,170.4L853,392.1L875.4,392.1Z" style="fill:rgb(241,243,244);fill-rule:nonzero;stroke:black;stroke-width:0.25px;"/>
            <rect x="798.5" y="497.7" width="52.6" height="121.9" style="fill:rgb(241,243,244);stroke:black;stroke-width:0.25px;"/>
            <path d="M776.2,450.5L776.2,619.6L729.5,619.6L729.5,522.3L645.9,522.3L645.9,450.5L776.2,450.5Z" style="fill:rgb(241,243,244);fill-rule:nonzero;stroke:black;stroke-width:0.25px;"/>
            <rect x="557.4" y="498" width="45.9" height="24.3" style="fill:rgb(241,243,244);stroke:black;stroke-width:0.25px;"/>
            <rect x="489.4" y="135.6" width="2" height="34.8" style="fill:rgb(241,243,244);stroke:black;stroke-width:0.25px;"/>
            <path d="M420.9,553.1L420.9,689.6L274.5,689.6L274.5,590L399.8,590L399.8,553.1L420.9,553.1Z" style="fill:rgb(241,243,244);fill-rule:nonzero;stroke:black;stroke-width:0.25px;"/>
            <rect x="144.2" y="477" width="130.3" height="59" style="fill:rgb(241,243,244);stroke:black;stroke-width:0.25px;"/>
            <path d="M779.1,170.4L779.1,392.1L645.9,392.1L645.9,343.4L729.5,343.4L729.5,170.4L779.1,170.4Z" style="fill:rgb(241,243,244);fill-rule:nonzero;stroke:black;stroke-width:0.25px;"/>
            <rect x="356.2" y="170.4" width="40.8" height="64.2" style="fill:rgb(241,243,244);stroke:black;stroke-width:0.25px;"/>
            <path d="M729.5,49.8L729.5,170.4L491.4,170.4L491.4,135.6L447.2,135.6L447.2,112L397,112L397,135.6L352.8,135.6L352.8,170.4L144.2,170.4L144.2,464.5L113.1,464.5L113.1,440.7L81,440.7L81,580.7L22.7,580.7L22.7,49.8L729.5,49.8Z" style="fill:rgb(241,243,244);fill-rule:nonzero;stroke:black;stroke-width:0.25px;"/>
            <rect x="441.3" y="450.5" width="75.3" height="26.4" style="fill:rgb(241,243,244);stroke:black;stroke-width:0.25px;"/>
        </g>
        <g id="Лестницы_00000155860578009764053510000015142577644724382630_">
            <rect x="352.1" y="375.7" width="44.9" height="25" style="fill:rgb(121,134,203);stroke:black;stroke-width:0.5px;"/>
            <rect x="611.6" y="522.3" width="26.6" height="17.6" style="fill:rgb(121,134,203);stroke:black;stroke-width:0.5px;"/>
            <rect x="352.8" y="135.4" width="44.2" height="35" style="fill:rgb(121,134,203);stroke:black;stroke-width:0.5px;"/>
            <rect x="399.8" y="498" width="21.1" height="55.1" style="fill:rgb(121,134,203);stroke:black;stroke-width:0.5px;"/>
            <rect x="447.2" y="135.4" width="44.2" height="35" style="fill:rgb(121,134,203);stroke:black;stroke-width:0.5px;"/>
            <rect x="109.4" y="477" width="34.8" height="44.1" style="fill:rgb(121,134,203);stroke:black;stroke-width:0.5px;"/>
        </g>
        <g id="Туалеты_00000176023885953794995700000003273841968759611067_">
            <rect x="798.5" y="445.2" width="52.6" height="23.4" style="fill:rgb(238,103,92);stroke:black;stroke-width:0.5px;"/>
            <path d="M851.1,468.6L851.1,497.7L798.5,497.7L798.5,478.8L820.9,478.8L820.9,468.6L851.1,468.6Z" style="fill:rgb(88,91,165);fill-rule:nonzero;stroke:black;stroke-width:0.5px;"/>
            <path d="M113.8,545.6L113.8,580.7L81,580.7L81,536L105.3,536L105.3,545.6L113.8,545.6Z" style="fill:rgb(238,103,92);fill-rule:nonzero;stroke:black;stroke-width:0.5px;"/>
            <path d="M144.2,536L144.2,580.7L113.8,580.7L113.8,545.6L122.4,545.6L122.4,536L144.2,536Z" style="fill:rgb(88,91,165);fill-rule:nonzero;stroke:black;stroke-width:0.5px;"/>
            <rect x="798.5" y="468.6" width="22.4" height="10.2" style="fill:rgb(241,243,244);stroke:black;stroke-width:0.5px;"/>
            <rect x="105.3" y="536" width="17.1" height="9.6" style="fill:rgb(241,243,244);stroke:black;stroke-width:0.5px;"/>
        </g>
        <g id="Коридор_00000048488721470111499550000003535009651536462248_">
            <path d="M853,103.3L853,170.4L798.5,170.4L798.5,619.6L776.2,619.6L776.2,450.5L645.9,450.5L645.9,465.7L603.3,465.7L603.3,450.5L441.3,450.5L441.3,477L420.9,477L420.9,498L399.8,498L399.8,590L371.8,590L371.8,477L109.4,477L109.4,521.1L144.2,521.1L144.2,536L81,536L81,440.7L113.1,440.7L113.1,464.5L144.2,464.5L144.2,453.3L397,453.3L397,112L447.2,112L447.2,397.6L476.7,397.6L476.7,370.7L522.4,370.7L522.4,397.6L557.4,397.6L557.4,343.4L645.9,343.4L645.9,392.1L779.1,392.1L779.1,170.4L729.5,170.4L729.5,10L781.4,10L781.4,103.3L853,103.3Z" style="fill:rgb(205,233,237);fill-rule:nonzero;stroke:black;stroke-width:0.5px;"/>
        </g>
        <g id="Гардероб">
            <rect x="516.6" y="450.5" width="86.8" height="47.5" style="fill:rgb(84,145,245);stroke:black;stroke-width:0.5px;"/>
            <rect x="447.2" y="170.4" width="29.6" height="227.2" style="fill:rgb(84,145,245);stroke:black;stroke-width:0.5px;"/>
        </g>
        <g id="Аудитории_00000018942931065929746140000013264202964963143063_">
            <path d="M877.3,38.1L877.3,103.3L781.4,103.3L781.4,10L852,10L877.3,38.1Z" style="fill:rgb(255,251,240);fill-rule:nonzero;stroke:black;stroke-width:0.5px;"/>
        </g>
        <g id="Спортзал">
            <rect x="420.9" y="477" width="95.7" height="212.6" style="fill:rgb(52,168,83);stroke:black;stroke-width:0.5px;"/>
        </g>
        <g id="Столовая">
            <rect x="274.5" y="477" width="97.3" height="113" style="fill:rgb(253,226,147);stroke:black;stroke-width:0.5px;"/>
        </g>
        <g id="Буфет">
            <rect x="522.4" y="343.4" width="35" height="54.2" style="fill:rgb(253,226,147);stroke:black;stroke-width:0.5px;"/>
        </g>
        <g id="Вход">
            <rect x="603.3" y="465.7" width="42.5" height="56.7" style="fill:rgb(121,134,203);stroke:black;stroke-width:0.5px;"/>
        </g>
        <g id="Знаки">
            <path d="M624.9,526L624.9,536.3" style="fill:none;fill-rule:nonzero;stroke:black;stroke-width:2px;stroke-linecap:round;stroke-linejoin:round;"/>
            <path d="M624.9,526L620.6,530.3" style="fill:none;fill-rule:nonzero;stroke:black;stroke-width:2px;stroke-linecap:round;stroke-linejoin:round;"/>
            <path d="M624.9,526L629.2,530.3" style="fill:none;fill-rule:nonzero;stroke:black;stroke-width:2px;stroke-linecap:round;stroke-linejoin:round;"/>
        </g>
        <g id="Двери_00000034087687042038094450000013909221346096165529_">
            <path d="M584.7,450.5C584.7,450.9 584.4,451.2 584,451.2L578.6,451.2C578.2,451.2 577.9,450.9 577.9,450.5C577.9,450.1 578.2,449.8 578.6,449.8L584,449.8C584.3,449.8 584.7,450.1 584.7,450.5Z" style="fill:rgb(248,255,106);fill-rule:nonzero;stroke:black;stroke-width:0.25px;stroke-linejoin:round;"/>
            <path d="M96.6,536C96.6,536.4 96.3,536.7 95.9,536.7L90.5,536.7C90.1,536.7 89.8,536.4 89.8,536C89.8,535.6 90.1,535.3 90.5,535.3L95.9,535.3C96.2,535.2 96.6,535.5 96.6,536Z" style="fill:rgb(210,145,191);fill-rule:nonzero;stroke:black;stroke-width:0.25px;stroke-linejoin:round;"/>
            <path d="M413.8,498C413.8,498.4 413.5,498.7 413.1,498.7L407.7,498.7C407.3,498.7 407,498.4 407,498C407,497.6 407.3,497.3 407.7,497.3L413.1,497.3C413.5,497.3 413.8,497.6 413.8,498Z" style="fill:rgb(114,182,43);fill-rule:nonzero;stroke:black;stroke-width:0.25px;stroke-linejoin:round;"/>
            <g transform="matrix(-1.83697e-16,1,-1,-1.83697e-16,768.688,185.272)">
                <rect x="291" y="473.5" width="1.5" height="6.9" style="fill:rgb(245,240,160);stroke:black;stroke-width:0.25px;stroke-linejoin:round;"/>
            </g>
            <path d="M136.7,536C136.7,536.4 136.4,536.7 136,536.7L130.6,536.7C130.2,536.7 129.9,536.4 129.9,536C129.9,535.6 130.2,535.3 130.6,535.3L136,535.3C136.4,535.2 136.7,535.5 136.7,536Z" style="fill:rgb(210,145,191);fill-rule:nonzero;stroke:black;stroke-width:0.25px;stroke-linejoin:round;"/>
            <path d="M798.5,460.4C798.1,460.4 797.8,460.1 797.8,459.7L797.8,454.3C797.8,453.9 798.1,453.6 798.5,453.6C798.9,453.6 799.2,453.9 799.2,454.3L799.2,459.7C799.2,460 798.9,460.4 798.5,460.4Z" style="fill:rgb(210,145,191);fill-rule:nonzero;stroke:black;stroke-width:0.25px;stroke-linejoin:round;"/>
            <path d="M798.5,491.7C798.1,491.7 797.8,491.4 797.8,491L797.8,485.6C797.8,485.2 798.1,484.9 798.5,484.9C798.9,484.9 799.2,485.2 799.2,485.6L799.2,491C799.2,491.4 798.9,491.7 798.5,491.7Z" style="fill:rgb(210,145,191);fill-rule:nonzero;stroke:black;stroke-width:0.25px;stroke-linejoin:round;"/>
            <g transform="matrix(-1,-1.22465e-16,1.22465e-16,-1,743.62,1160.53)">
                <rect x="371.1" y="576.8" width="1.5" height="6.9" style="fill:rgb(245,240,160);stroke:black;stroke-width:0.25px;stroke-linejoin:round;"/>
            </g>
            <path d="M130.2,477C130.2,477.4 129.9,477.7 129.5,477.7L124.1,477.7C123.7,477.7 123.4,477.4 123.4,477C123.4,476.6 123.7,476.3 124.1,476.3L129.5,476.3C129.9,476.2 130.2,476.6 130.2,477Z" style="fill:rgb(114,182,43);fill-rule:nonzero;stroke:black;stroke-width:0.25px;stroke-linejoin:round;"/>
            <path d="M397,391.6C396.6,391.6 396.3,391.3 396.3,390.9L396.3,385.5C396.3,385.1 396.6,384.8 397,384.8C397.4,384.8 397.7,385.1 397.7,385.5L397.7,390.9C397.7,391.3 397.4,391.6 397,391.6Z" style="fill:rgb(114,182,43);fill-rule:nonzero;stroke:black;stroke-width:0.25px;stroke-linejoin:round;"/>
            <path d="M397,156C396.6,156 396.3,155.7 396.3,155.3L396.3,149.9C396.3,149.5 396.6,149.2 397,149.2C397.4,149.2 397.7,149.5 397.7,149.9L397.7,155.3C397.7,155.7 397.4,156 397,156Z" style="fill:rgb(114,182,43);fill-rule:nonzero;stroke:black;stroke-width:0.25px;stroke-linejoin:round;"/>
            <path d="M447.2,156C446.8,156 446.5,155.7 446.5,155.3L446.5,149.9C446.5,149.5 446.8,149.2 447.2,149.2C447.6,149.2 447.9,149.5 447.9,149.9L447.9,155.3C447.9,155.7 447.6,156 447.2,156Z" style="fill:rgb(114,182,43);fill-rule:nonzero;stroke:black;stroke-width:0.25px;stroke-linejoin:round;"/>
            <path d="M628.3,522.3C628.3,522.7 628,523 627.6,523L622.2,523C621.8,523 621.5,522.7 621.5,522.3C621.5,521.9 621.8,521.6 622.2,521.6L627.6,521.6C628,521.6 628.3,521.9 628.3,522.3Z" style="fill:rgb(114,182,43);fill-rule:nonzero;stroke:black;stroke-width:0.25px;stroke-linejoin:round;"/>
            <g transform="matrix(-1.83697e-16,1,-1,-1.83697e-16,923.723,-717.143)">
                <rect x="819.7" y="99.9" width="1.5" height="6.9" style="fill:rgb(245,240,160);stroke:black;stroke-width:0.25px;stroke-linejoin:round;"/>
            </g>
            <g transform="matrix(-1,-1.22465e-16,1.22465e-16,-1,1562.72,120.104)">
                <rect x="780.6" y="56.6" width="1.5" height="6.9" style="fill:rgb(245,240,160);stroke:black;stroke-width:0.25px;stroke-linejoin:round;"/>
            </g>
            <path d="M447.2,288.1C446.8,288.1 446.5,287.8 446.5,287.4L446.5,282C446.5,281.6 446.8,281.3 447.2,281.3C447.6,281.3 447.9,281.6 447.9,282L447.9,287.4C447.9,287.7 447.6,288.1 447.2,288.1Z" style="fill:rgb(248,255,106);fill-rule:nonzero;stroke:black;stroke-width:0.25px;stroke-linejoin:round;"/>
            <g transform="matrix(6.12323e-17,-1,1,6.12323e-17,-45.7674,908.193)">
                <rect x="430.5" y="473.5" width="1.5" height="6.9" style="fill:rgb(245,240,160);stroke:black;stroke-width:0.25px;stroke-linejoin:round;"/>
            </g>
        </g>
    </g>
</svg>
