<?xml version="1.0" encoding="UTF-8" standalone="no"?>
<!DOCTYPE svg PUBLIC "-//W3C//DTD SVG 1.1//EN" "http://www.w3.org/Graphics/SVG/1.1/DTD/svg11.dtd">
<svg width="100%" height="100%" viewBox="0 0 900 700" version="1.1" xmlns="http://www.w3.org/2000/svg" xmlns:xlink="http://www.w3.org/1999/xlink" xml:space="preserve" xmlns:serif="http://www.serif.com/" style="fill-rule:evenodd;clip-rule:evenodd;stroke-linejoin:bevel;stroke-miterlimit:10;">
    <g id="_x33__этаж">
        <path d="M853,103.3L853,392.1L875.4,392.1L875.4,440.7L851.1,440.7L851,619.6L729.5,619.6L729.5,522.4L557.4,522.4L557.4,498L516.6,498L516.6,689.6L274.5,689.6L274.5,536L144.2,536L144.2,453.3L397,453.3L397,234.6L356.2,234.6L356.2,170.4L476.7,170.4L476.7,370.7L522.4,370.7L522.4,343.5L729.5,343.5L729.5,170.4L572,170.4L572,49.8L729.5,49.8L729.5,10L852,10L877.3,38.2L877.3,103.3L853,103.3Z" style="fill:rgb(241,243,244);fill-rule:nonzero;stroke:black;stroke-width:0.25px;"/>
        <rect x="81" y="536" width="30.1" height="44.7" style="fill:rgb(241,243,244);stroke:black;stroke-width:0.5px;"/>
        <rect x="22.7" y="49.8" width="58.4" height="87.5" style="fill:rgb(255,251,240);stroke:black;stroke-width:0.5px;"/>
        <rect x="81" y="49.8" width="67.1" height="62.2" style="fill:rgb(255,251,240);stroke:black;stroke-width:0.5px;"/>
        <rect x="148.1" y="49.8" width="68.1" height="62.2" style="fill:rgb(255,251,240);stroke:black;stroke-width:0.5px;"/>
        <rect x="216.2" y="49.8" width="70" height="62.2" style="fill:rgb(255,251,240);stroke:black;stroke-width:0.5px;"/>
        <rect x="286.2" y="49.8" width="47.7" height="62.2" style="fill:rgb(255,251,240);stroke:black;stroke-width:0.5px;"/>
        <rect x="333.8" y="49.8" width="85.8" height="62.2" style="fill:rgb(255,251,240);stroke:black;stroke-width:0.5px;"/>
        <rect x="419.7" y="49.8" width="40.2" height="62.2" style="fill:rgb(255,251,240);stroke:black;stroke-width:0.5px;"/>
        <rect x="459.8" y="49.8" width="112.2" height="62.2" style="fill:rgb(255,251,240);stroke:black;stroke-width:0.5px;"/>
        <path d="M729.5,522.3" style="fill:none;fill-rule:nonzero;stroke:black;stroke-width:0.5px;"/>
        <path d="M24.6,580.7" style="fill:none;fill-rule:nonzero;stroke:black;stroke-width:0.5px;"/>
        <rect x="111.2" y="536" width="33.1" height="44.7" style="fill:rgb(238,103,92);stroke:black;stroke-width:0.5px;"/>
        <rect x="22.7" y="506.8" width="58.4" height="73.9" style="fill:rgb(255,251,240);stroke:black;stroke-width:0.5px;"/>
        <rect x="22.7" y="440.7" width="58.4" height="66.1" style="fill:rgb(255,251,240);stroke:black;stroke-width:0.5px;"/>
        <rect x="22.7" y="372.6" width="58.4" height="68.1" style="fill:rgb(255,251,240);stroke:black;stroke-width:0.5px;"/>
        <rect x="22.7" y="307.5" width="58.4" height="65.1" style="fill:rgb(255,251,240);stroke:black;stroke-width:0.5px;"/>
        <rect x="22.7" y="239.4" width="58.4" height="68.1" style="fill:rgb(255,251,240);stroke:black;stroke-width:0.5px;"/>
        <rect x="22.7" y="170.4" width="58.4" height="69" style="fill:rgb(255,251,240);stroke:black;stroke-width:0.5px;"/>
        <rect x="22.7" y="137.3" width="58.4" height="33.1" style="fill:rgb(255,251,240);stroke:black;stroke-width:0.5px;"/>
        <rect x="108.2" y="191.8" width="36" height="24.3" style="fill:rgb(255,251,240);stroke:black;stroke-width:0.5px;"/>
        <rect x="108.2" y="170.4" width="36" height="21.4" style="fill:rgb(255,251,240);stroke:black;stroke-width:0.5px;"/>
        <rect x="108.2" y="216.1" width="36" height="91.4" style="fill:rgb(255,251,240);stroke:black;stroke-width:0.5px;"/>
        <rect x="108.2" y="307.5" width="36" height="65.1" style="fill:rgb(255,251,240);stroke:black;stroke-width:0.5px;"/>
        <rect x="303.2" y="135.4" width="49.6" height="35" style="fill:rgb(255,251,240);stroke:black;stroke-width:0.5px;"/>
        <rect x="262.8" y="135.4" width="40.3" height="35" style="fill:rgb(255,251,240);stroke:black;stroke-width:0.5px;"/>
        <rect x="109.4" y="477" width="34.8" height="44.1" style="fill:rgb(121,134,203);stroke:black;stroke-width:0.5px;"/>
        <rect x="447.2" y="135.4" width="44.2" height="35" style="fill:rgb(121,134,203);stroke:black;stroke-width:0.5px;"/>
        <rect x="352.8" y="135.4" width="44.2" height="35" style="fill:rgb(121,134,203);stroke:black;stroke-width:0.5px;"/>
        <rect x="491.4" y="112" width="80.6" height="58.3" style="fill:rgb(255,251,240);stroke:black;stroke-width:0.5px;"/>
        <path d="M72.7,580.7L122,580.7" style="fill:none;fill-rule:nonzero;stroke:black;stroke-width:0.5px;"/>
        <path d="M491.4,112L491.4,135.4L447.2,135.4L447.2,170.4L397,170.4L397,135.4L262.8,135.4L262.8,170.4L81,170.4L81,112L491.4,112Z" style="fill:rgb(205,233,237);fill-rule:nonzero;stroke:black;stroke-width:0.5px;"/>
        <path d="M144.2,372.6L144.2,477L109.4,477L109.4,521.1L144.2,521.1L144.2,536L81,536L81,170.4L108.2,170.4L108.2,372.6L144.2,372.6Z" style="fill:rgb(205,233,237);fill-rule:nonzero;stroke:black;stroke-width:0.5px;"/>
        <g id="Двери_00000072243646444715355380000012652347514313107891_">
            <path d="M91.2,170.4C91.2,170 91.5,169.7 91.9,169.7L97.3,169.7C97.7,169.7 98,170 98,170.4C98,170.8 97.7,171.1 97.3,171.1L91.9,171.1C91.5,171.1 91.2,170.8 91.2,170.4Z" style="fill:rgb(109,195,190);fill-rule:nonzero;stroke:black;stroke-width:0.25px;stroke-linejoin:round;"/>
            <g transform="matrix(-1,-1.22465e-16,1.22465e-16,-1,162.05,1044.3)">
                <rect x="80.3" y="518.7" width="1.5" height="6.9" style="fill:rgb(245,240,160);stroke:black;stroke-width:0.25px;stroke-linejoin:round;"/>
            </g>
            <g transform="matrix(-1,-1.22465e-16,1.22465e-16,-1,162.05,904.461)">
                <rect x="80.3" y="448.8" width="1.5" height="6.9" style="fill:rgb(245,240,160);stroke:black;stroke-width:0.25px;stroke-linejoin:round;"/>
            </g>
            <g transform="matrix(-1,-1.22465e-16,1.22465e-16,-1,162.05,765.441)">
                <rect x="80.3" y="379.3" width="1.5" height="6.9" style="fill:rgb(245,240,160);stroke:black;stroke-width:0.25px;stroke-linejoin:round;"/>
            </g>
            <g transform="matrix(-1,-1.22465e-16,1.22465e-16,-1,216.49,696.928)">
                <rect x="107.5" y="345" width="1.5" height="6.9" style="fill:rgb(245,240,160);stroke:black;stroke-width:0.25px;stroke-linejoin:round;"/>
            </g>
            <g transform="matrix(6.12323e-17,-1,1,6.12323e-17,-246.382,498.842)">
                <rect x="125.5" y="369.2" width="1.5" height="6.9" style="fill:rgb(245,240,160);stroke:black;stroke-width:0.25px;stroke-linejoin:round;"/>
            </g>
            <g transform="matrix(-1,-1.22465e-16,1.22465e-16,-1,162.05,642.673)">
                <rect x="80.3" y="317.9" width="1.5" height="6.9" style="fill:rgb(245,240,160);stroke:black;stroke-width:0.25px;stroke-linejoin:round;"/>
            </g>
            <g transform="matrix(-1,-1.22465e-16,1.22465e-16,-1,162.05,500.618)">
                <rect x="80.3" y="246.9" width="1.5" height="6.9" style="fill:rgb(245,240,160);stroke:black;stroke-width:0.25px;stroke-linejoin:round;"/>
            </g>
            <g transform="matrix(-1,-1.22465e-16,1.22465e-16,-1,216.49,458.099)">
                <rect x="107.5" y="225.6" width="1.5" height="6.9" style="fill:rgb(245,240,160);stroke:black;stroke-width:0.25px;stroke-linejoin:round;"/>
            </g>
            <g transform="matrix(-1,-1.22465e-16,1.22465e-16,-1,216.49,417.379)">
                <rect x="107.5" y="205.3" width="1.5" height="6.9" style="fill:rgb(245,240,160);stroke:black;stroke-width:0.25px;stroke-linejoin:round;"/>
            </g>
            <g transform="matrix(-1,-1.22465e-16,1.22465e-16,-1,216.49,362.134)">
                <rect x="107.5" y="177.6" width="1.5" height="6.9" style="fill:rgb(245,240,160);stroke:black;stroke-width:0.25px;stroke-linejoin:round;"/>
            </g>
            <g transform="matrix(-1,-1.22465e-16,1.22465e-16,-1,162.05,362.134)">
                <rect x="80.3" y="177.6" width="1.5" height="6.9" style="fill:rgb(245,240,160);stroke:black;stroke-width:0.25px;stroke-linejoin:round;"/>
            </g>
            <g transform="matrix(-1,-1.22465e-16,1.22465e-16,-1,162.05,253.274)">
                <rect x="80.3" y="123.2" width="1.5" height="6.9" style="fill:rgb(245,240,160);stroke:black;stroke-width:0.25px;stroke-linejoin:round;"/>
            </g>
            <g transform="matrix(6.12323e-17,-1,1,6.12323e-17,26.769,250.853)">
                <rect x="138.1" y="108.6" width="1.5" height="6.9" style="fill:rgb(245,240,160);stroke:black;stroke-width:0.25px;stroke-linejoin:round;"/>
            </g>
            <g transform="matrix(6.12323e-17,-1,1,6.12323e-17,45.788,269.872)">
                <rect x="157.1" y="108.6" width="1.5" height="6.9" style="fill:rgb(245,240,160);stroke:black;stroke-width:0.25px;stroke-linejoin:round;"/>
            </g>
            <g transform="matrix(6.12323e-17,-1,1,6.12323e-17,162.948,387.032)">
                <rect x="274.3" y="108.6" width="1.5" height="6.9" style="fill:rgb(245,240,160);stroke:black;stroke-width:0.25px;stroke-linejoin:round;"/>
            </g>
            <g transform="matrix(6.12323e-17,-1,1,6.12323e-17,211.399,435.483)">
                <rect x="322.7" y="108.6" width="1.5" height="6.9" style="fill:rgb(245,240,160);stroke:black;stroke-width:0.25px;stroke-linejoin:round;"/>
            </g>
            <g transform="matrix(6.12323e-17,-1,1,6.12323e-17,157.455,428.199)">
                <rect x="292.1" y="131.9" width="1.5" height="6.9" style="fill:rgb(245,240,160);stroke:black;stroke-width:0.25px;stroke-linejoin:round;"/>
            </g>
            <g transform="matrix(6.12323e-17,-1,1,6.12323e-17,189.581,460.325)">
                <rect x="324.2" y="131.9" width="1.5" height="6.9" style="fill:rgb(245,240,160);stroke:black;stroke-width:0.25px;stroke-linejoin:round;"/>
            </g>
            <g transform="matrix(6.12323e-17,-1,1,6.12323e-17,297.005,521.089)">
                <rect x="408.3" y="108.6" width="1.5" height="6.9" style="fill:rgb(245,240,160);stroke:black;stroke-width:0.25px;stroke-linejoin:round;"/>
            </g>
            <g transform="matrix(6.12323e-17,-1,1,6.12323e-17,331.132,555.212)">
                <rect x="442.4" y="108.6" width="1.5" height="6.9" style="fill:rgb(245,240,160);stroke:black;stroke-width:0.25px;stroke-linejoin:round;"/>
            </g>
            <g transform="matrix(6.12323e-17,-1,1,6.12323e-17,362.08,586.204)">
                <rect x="473.4" y="108.6" width="1.5" height="6.9" style="fill:rgb(245,240,160);stroke:black;stroke-width:0.25px;stroke-linejoin:round;"/>
            </g>
            <rect x="490.7" y="120.3" width="1.5" height="6.9" style="fill:rgb(245,240,160);stroke:black;stroke-width:0.25px;stroke-linejoin:round;"/>
            <path d="M130.2,477C130.2,477.4 129.9,477.7 129.5,477.7L124.1,477.7C123.7,477.7 123.4,477.4 123.4,477C123.4,476.6 123.7,476.3 124.1,476.3L129.5,476.3C129.9,476.2 130.2,476.6 130.2,477Z" style="fill:rgb(114,182,43);fill-rule:nonzero;stroke:black;stroke-width:0.25px;stroke-linejoin:round;"/>
            <path d="M397,156C396.6,156 396.3,155.7 396.3,155.3L396.3,149.9C396.3,149.5 396.6,149.2 397,149.2C397.4,149.2 397.7,149.5 397.7,149.9L397.7,155.3C397.7,155.7 397.4,156 397,156Z" style="fill:rgb(114,182,43);fill-rule:nonzero;stroke:black;stroke-width:0.25px;stroke-linejoin:round;"/>
            <path d="M447.2,156C446.8,156 446.5,155.7 446.5,155.3L446.5,149.9C446.5,149.5 446.8,149.2 447.2,149.2C447.6,149.2 447.9,149.5 447.9,149.9L447.9,155.3C447.9,155.7 447.6,156 447.2,156Z" style="fill:rgb(114,182,43);fill-rule:nonzero;stroke:black;stroke-width:0.25px;stroke-linejoin:round;"/>
            <path d="M131.1,536C131.1,536.4 130.8,536.7 130.4,536.7L125,536.7C124.6,536.7 124.3,536.4 124.3,536C124.3,535.6 124.6,535.3 125,535.3L130.4,535.3C130.8,535.2 131.1,535.5 131.1,536Z" style="fill:rgb(210,145,191);fill-rule:nonzero;stroke:black;stroke-width:0.25px;stroke-linejoin:round;"/>
        </g>
    </g>
</svg>
