<?xml version="1.0" encoding="UTF-8" standalone="no"?>
<!DOCTYPE svg PUBLIC "-//W3C//DTD SVG 1.1//EN" "http://www.w3.org/Graphics/SVG/1.1/DTD/svg11.dtd">
<svg width="100%" height="100%" viewBox="0 0 250 250" version="1.1" xmlns="http://www.w3.org/2000/svg" xmlns:xlink="http://www.w3.org/1999/xlink" xml:space="preserve" xmlns:serif="http://www.serif.com/" style="fill-rule:evenodd;clip-rule:evenodd;stroke-linejoin:round;stroke-miterlimit:2;">
    <rect id="Монтажная-область1" serif:id="Монтажная область1" x="0" y="0" width="250" height="250" style="fill:none;"/>
    <g id="Монтажная-область11" serif:id="Монтажная область1">
        <g id="_1-этаж" serif:id="1 этаж">
            <g transform="matrix(-1.13955,0,0,1.12095,267.453,-13.1631)">
                <ellipse cx="125.008" cy="123.255" rx="105.305" ry="107.052" style="fill:rgb(243,243,243);"/>
                <path d="M125.008,16.203C183.128,16.203 230.313,64.172 230.313,123.255C230.313,182.339 183.128,230.307 125.008,230.307C66.889,230.307 19.703,182.339 19.703,123.255C19.703,64.172 66.889,16.203 125.008,16.203ZM125.008,16.947C67.293,16.947 20.435,64.582 20.435,123.255C20.435,181.929 67.293,229.564 125.008,229.564C182.724,229.564 229.582,181.929 229.582,123.255C229.582,64.582 182.724,16.947 125.008,16.947Z" style="fill:rgb(38,38,38);"/>
            </g>
            <g transform="matrix(0.766935,0,0,0.8192,52.4121,45.5467)">
                <text x="45.032px" y="155.99px" style="font-family:'ArialRoundedMTBold', 'Arial Rounded MT Bold', sans-serif;font-size:166.667px;fill:rgb(38,38,38);">1</text>
            </g>
        </g>
    </g>
</svg>
