<?xml version="1.0" encoding="UTF-8" standalone="no"?><!DOCTYPE svg PUBLIC "-//W3C//DTD SVG 1.1//EN" "http://www.w3.org/Graphics/SVG/1.1/DTD/svg11.dtd"><svg width="100%" height="100%" viewBox="0 0 249 249" version="1.1" xmlns="http://www.w3.org/2000/svg" xmlns:xlink="http://www.w3.org/1999/xlink" xml:space="preserve" xmlns:serif="http://www.serif.com/" style="fill-rule:evenodd;clip-rule:evenodd;stroke-linejoin:round;stroke-miterlimit:2;"><rect id="Монтажная-область1" serif:id="Монтажная область1" x="0" y="0" width="248.333" height="248.333" style="fill:none;"/><g id="Монтажная-область11" serif:id="Монтажная область1"><g id="_2-этаж_подсветка" serif:id="2 этаж_подсветка"><circle cx="124.167" cy="124.167" r="119.2" style="fill:#f3f3f3;"/><path d="M124.167,4.967c-65.789,-0 -119.2,53.411 -119.2,119.2c-0,65.788 53.411,119.2 119.2,119.2c65.788,-0 119.2,-53.412 119.2,-119.2c-0,-65.789 -53.412,-119.2 -119.2,-119.2Zm-0,2.069c64.646,0 117.13,52.485 117.13,117.131c0,64.646 -52.484,117.13 -117.13,117.13c-64.646,0 -117.131,-52.484 -117.131,-117.13c0,-64.646 52.485,-117.131 117.131,-117.131Z" style="fill:#1a73e8;"/><g transform="matrix(0.862573,0,0,1,7.64897,0)"><text x="92.924px" y="173.833px" style="font-family:'ArialRoundedMTBold', 'Arial Rounded MT Bold', sans-serif;font-size:137.922px;fill:#1a73e8;">2</text></g></g></g></svg>