<?xml version="1.0" encoding="UTF-8" standalone="no"?><!DOCTYPE svg PUBLIC "-//W3C//DTD SVG 1.1//EN" "http://www.w3.org/Graphics/SVG/1.1/DTD/svg11.dtd"><svg width="100%" height="100%" viewBox="0 0 249 249" version="1.1" xmlns="http://www.w3.org/2000/svg" xmlns:xlink="http://www.w3.org/1999/xlink" xml:space="preserve" xmlns:serif="http://www.serif.com/" style="fill-rule:evenodd;clip-rule:evenodd;stroke-linejoin:round;stroke-miterlimit:2;"><rect id="Монтажная-область1" serif:id="Монтажная область1" x="0" y="0" width="248.333" height="248.333" style="fill:none;"/><g id="Монтажная-область11" serif:id="Монтажная область1"><g id="_4-этаж" serif:id="4 этаж"><circle cx="124.167" cy="124.167" r="119.2" style="fill:#f3f3f3;"/><path d="M124.167,4.967c-65.789,-0 -119.2,53.411 -119.2,119.2c-0,65.788 53.411,119.2 119.2,119.2c65.788,-0 119.2,-53.412 119.2,-119.2c-0,-65.789 -53.412,-119.2 -119.2,-119.2Zm-0,0.827c65.331,0 118.372,53.041 118.372,118.373c-0,65.331 -53.041,118.372 -118.372,118.372c-65.332,-0 -118.373,-53.041 -118.373,-118.372c0,-65.332 53.041,-118.373 118.373,-118.373Z" style="fill:#262626;"/><g transform="matrix(0.784416,0,0,1,13.9101,0)"><text x="100.924px" y="172.189px" style="font-family:'ArialRoundedMTBold', 'Arial Rounded MT Bold', sans-serif;font-size:134.725px;fill:#262626;">4</text></g></g></g></svg>