<?xml version="1.0" encoding="UTF-8" standalone="no"?>
<!DOCTYPE svg PUBLIC "-//W3C//DTD SVG 1.1//EN" "http://www.w3.org/Graphics/SVG/1.1/DTD/svg11.dtd">
<svg width="100%" height="100%" viewBox="0 0 250 250" version="1.1" xmlns="http://www.w3.org/2000/svg" xmlns:xlink="http://www.w3.org/1999/xlink" xml:space="preserve" xmlns:serif="http://www.serif.com/" style="fill-rule:evenodd;clip-rule:evenodd;stroke-linejoin:round;stroke-miterlimit:2;">
    <g id="Монтажная-область1" serif:id="Монтажная область1">
        <g id="A">
            <g transform="matrix(-1.13955,0,0,1.12095,267.453,-13.1631)">
                <ellipse cx="125.008" cy="123.255" rx="105.305" ry="107.052" style="fill:rgb(84,145,245);"/>
                <path d="M125.008,16.203C183.127,16.203 230.313,64.171 230.313,123.255C230.313,182.339 183.127,230.307 125.008,230.307C66.889,230.307 19.703,182.339 19.703,123.255C19.703,64.171 66.889,16.203 125.008,16.203ZM125.008,20.664C69.31,20.664 24.091,66.633 24.091,123.255C24.091,179.877 69.31,225.846 125.008,225.846C180.706,225.846 225.925,179.877 225.925,123.255C225.925,66.633 180.706,20.664 125.008,20.664Z" style="fill:rgb(243,243,243);"/>
            </g>
            <g transform="matrix(0.915086,0,0,0.942052,63.5985,62.2435)">
                <g transform="matrix(163.123,0,0,163.123,8.55665,125)">
                    <path d="M0.536,-0.081L0.502,-0.171L0.211,-0.171L0.177,-0.079C0.163,-0.043 0.152,-0.019 0.143,-0.007C0.133,0.006 0.118,0.012 0.096,0.012C0.078,0.012 0.062,0.006 0.048,-0.008C0.034,-0.021 0.027,-0.036 0.027,-0.053C0.027,-0.063 0.028,-0.073 0.032,-0.083C0.035,-0.094 0.04,-0.108 0.048,-0.127L0.231,-0.592C0.236,-0.605 0.242,-0.621 0.25,-0.64C0.257,-0.659 0.265,-0.674 0.273,-0.687C0.281,-0.699 0.292,-0.709 0.306,-0.717C0.319,-0.724 0.336,-0.728 0.356,-0.728C0.376,-0.728 0.393,-0.724 0.406,-0.717C0.42,-0.709 0.431,-0.699 0.439,-0.687C0.448,-0.675 0.455,-0.662 0.46,-0.648C0.466,-0.634 0.473,-0.616 0.482,-0.593L0.669,-0.131C0.684,-0.096 0.691,-0.07 0.691,-0.054C0.691,-0.038 0.684,-0.022 0.67,-0.009C0.656,0.005 0.64,0.012 0.62,0.012C0.609,0.012 0.599,0.01 0.591,0.006C0.583,0.002 0.576,-0.003 0.57,-0.01C0.565,-0.017 0.559,-0.028 0.552,-0.043C0.546,-0.057 0.541,-0.07 0.536,-0.081ZM0.249,-0.28L0.463,-0.28L0.355,-0.575L0.249,-0.28Z" style="fill:rgb(243,243,243);fill-rule:nonzero;"/>
                </g>
            </g>
        </g>
    </g>
</svg>
