<?xml version="1.0" encoding="UTF-8" standalone="no"?>
<!DOCTYPE svg PUBLIC "-//W3C//DTD SVG 1.1//EN" "http://www.w3.org/Graphics/SVG/1.1/DTD/svg11.dtd">
<svg width="100%" height="100%" viewBox="0 0 250 250" version="1.1" xmlns="http://www.w3.org/2000/svg" xmlns:xlink="http://www.w3.org/1999/xlink" xml:space="preserve" xmlns:serif="http://www.serif.com/" style="fill-rule:evenodd;clip-rule:evenodd;stroke-linejoin:round;stroke-miterlimit:2;">
    <g id="Монтажная-область1" serif:id="Монтажная область1">
        <g id="A">
            <g transform="matrix(-1.13955,0,0,1.12095,267.453,-13.1631)">
                <ellipse cx="125.008" cy="123.255" rx="105.305" ry="107.052" style="fill:rgb(84,145,245);"/>
                <path d="M125.008,16.203C183.127,16.203 230.313,64.171 230.313,123.255C230.313,182.339 183.127,230.307 125.008,230.307C66.889,230.307 19.703,182.339 19.703,123.255C19.703,64.171 66.889,16.203 125.008,16.203ZM125.008,20.664C69.31,20.664 24.091,66.633 24.091,123.255C24.091,179.877 69.31,225.846 125.008,225.846C180.706,225.846 225.925,179.877 225.925,123.255C225.925,66.633 180.706,20.664 125.008,20.664Z" style="fill:rgb(243,243,243);"/>
            </g>
            <g transform="matrix(0.915086,0,0,0.942052,63.5985,62.2435)">
                <g transform="matrix(163.123,0,0,163.123,8.55665,125)">
                    <path d="M0.384,-0L0.165,-0C0.133,-0 0.111,-0.007 0.097,-0.021C0.084,-0.035 0.077,-0.058 0.077,-0.089L0.077,-0.627C0.077,-0.659 0.084,-0.681 0.098,-0.695C0.112,-0.709 0.134,-0.716 0.165,-0.716L0.397,-0.716C0.431,-0.716 0.461,-0.714 0.486,-0.709C0.511,-0.705 0.533,-0.697 0.553,-0.685C0.57,-0.675 0.585,-0.662 0.598,-0.647C0.611,-0.631 0.621,-0.614 0.628,-0.595C0.635,-0.577 0.638,-0.557 0.638,-0.536C0.638,-0.465 0.602,-0.412 0.531,-0.379C0.625,-0.349 0.672,-0.291 0.672,-0.204C0.672,-0.164 0.662,-0.128 0.641,-0.096C0.621,-0.064 0.593,-0.04 0.558,-0.025C0.536,-0.016 0.511,-0.009 0.483,-0.006C0.455,-0.002 0.422,-0 0.384,-0ZM0.373,-0.318L0.222,-0.318L0.222,-0.109L0.378,-0.109C0.476,-0.109 0.525,-0.144 0.525,-0.215C0.525,-0.251 0.512,-0.277 0.487,-0.293C0.461,-0.31 0.424,-0.318 0.373,-0.318ZM0.222,-0.607L0.222,-0.422L0.355,-0.422C0.391,-0.422 0.419,-0.425 0.439,-0.432C0.458,-0.439 0.473,-0.452 0.484,-0.471C0.492,-0.485 0.496,-0.5 0.496,-0.517C0.496,-0.553 0.483,-0.577 0.458,-0.589C0.432,-0.601 0.393,-0.607 0.34,-0.607L0.222,-0.607Z" style="fill:rgb(243,243,243);fill-rule:nonzero;"/>
                </g>
            </g>
        </g>
    </g>
</svg>
