<?xml version="1.0" encoding="UTF-8" standalone="no"?><!DOCTYPE svg PUBLIC "-//W3C//DTD SVG 1.1//EN" "http://www.w3.org/Graphics/SVG/1.1/DTD/svg11.dtd"><svg width="100%" height="100%" viewBox="0 0 250 250" version="1.1" xmlns="http://www.w3.org/2000/svg" xmlns:xlink="http://www.w3.org/1999/xlink" xml:space="preserve" xmlns:serif="http://www.serif.com/" style="fill-rule:evenodd;clip-rule:evenodd;stroke-linejoin:round;stroke-miterlimit:2;"><rect id="Монтажная-область1" serif:id="Монтажная область1" x="0" y="0" width="250" height="250" style="fill:none;"/><g id="Монтажная-область11" serif:id="Монтажная область1"><g id="Центрирование"><circle cx="125" cy="125" r="120" style="fill:#f3f3f3;"/><path d="M125,5c-66.23,0 -120,53.77 -120,120c0,66.23 53.77,120 120,120c66.23,0 120,-53.77 120,-120c0,-66.23 -53.77,-120 -120,-120Zm0,0.833c65.77,0 119.167,53.397 119.167,119.167c-0,65.77 -53.397,119.167 -119.167,119.167c-65.77,-0 -119.167,-53.397 -119.167,-119.167c0,-65.77 53.397,-119.167 119.167,-119.167Z" style="fill:#262626;"/><path id="Location--filled-" serif:id="Location (filled)" d="M170,78l-100,45.455l56.522,-0l-0,54.545l43.478,-100Z" style="fill:#262626;fill-rule:nonzero;"/></g></g></svg>