<?xml version="1.0" encoding="UTF-8" standalone="no"?>
<!DOCTYPE svg PUBLIC "-//W3C//DTD SVG 1.1//EN" "http://www.w3.org/Graphics/SVG/1.1/DTD/svg11.dtd">
<svg width="100%" height="100%" viewBox="0 0 250 250" version="1.1" xmlns="http://www.w3.org/2000/svg" xmlns:xlink="http://www.w3.org/1999/xlink" xml:space="preserve" xmlns:serif="http://www.serif.com/" style="fill-rule:evenodd;clip-rule:evenodd;stroke-linecap:round;stroke-linejoin:round;stroke-miterlimit:1;">
    <rect id="Монтажная-область1" serif:id="Монтажная область1" x="0" y="0" width="250" height="250" style="fill:none;"/>
    <g id="Монтажная-область11" serif:id="Монтажная область1">
        <g id="Плюсик">
            <g transform="matrix(-1.13955,0,0,1.12095,267.453,-13.1631)">
                <ellipse cx="125.008" cy="123.255" rx="105.305" ry="107.052" style="fill:rgb(243,243,243);"/>
                <path d="M125.008,16.203C183.128,16.203 230.313,64.172 230.313,123.255C230.313,182.339 183.128,230.307 125.008,230.307C66.889,230.307 19.703,182.339 19.703,123.255C19.703,64.172 66.889,16.203 125.008,16.203ZM125.008,16.947C67.293,16.947 20.435,64.582 20.435,123.255C20.435,181.929 67.293,229.564 125.008,229.564C182.724,229.564 229.582,181.929 229.582,123.255C229.582,64.582 182.724,16.947 125.008,16.947Z" style="fill:rgb(38,38,38);"/>
            </g>
            <g transform="matrix(1.38778e-17,0.359772,-1.00736,5.55112e-17,214.089,85.9315)">
                <path d="M109.982,34.333C109.982,34.06 109.363,33.84 108.6,33.84C108.595,33.84 108.59,33.84 108.584,33.84C107.821,33.84 107.203,34.06 107.203,34.333C107.203,41.935 107.203,134.94 107.203,142.542C107.203,142.815 107.821,143.036 108.584,143.036C108.59,143.036 108.595,143.036 108.6,143.036C109.363,143.036 109.982,142.815 109.982,142.542C109.982,134.94 109.982,41.935 109.982,34.333Z" style="fill:rgb(38,38,38);stroke:rgb(38,38,38);stroke-width:4.41px;"/>
            </g>
            <g transform="matrix(0.359772,0,0,1.00736,85.9315,35.9114)">
                <path d="M109.982,34.333C109.982,34.06 109.363,33.84 108.6,33.84C108.595,33.84 108.59,33.84 108.584,33.84C107.821,33.84 107.203,34.06 107.203,34.333C107.203,41.935 107.203,134.94 107.203,142.542C107.203,142.815 107.821,143.036 108.584,143.036C108.59,143.036 108.595,143.036 108.6,143.036C109.363,143.036 109.982,142.815 109.982,142.542C109.982,134.94 109.982,41.935 109.982,34.333Z" style="fill:rgb(38,38,38);stroke:rgb(38,38,38);stroke-width:4.41px;"/>
            </g>
        </g>
    </g>
</svg>
