<?xml version="1.0" encoding="UTF-8" standalone="no"?>
<!DOCTYPE svg PUBLIC "-//W3C//DTD SVG 1.1//EN" "http://www.w3.org/Graphics/SVG/1.1/DTD/svg11.dtd">
<svg width="100%" height="100%" viewBox="0 0 250 250" version="1.1" xmlns="http://www.w3.org/2000/svg" xmlns:xlink="http://www.w3.org/1999/xlink" xml:space="preserve" xmlns:serif="http://www.serif.com/" style="fill-rule:evenodd;clip-rule:evenodd;stroke-linecap:round;stroke-linejoin:round;stroke-miterlimit:1.5;">
    <g id="Монтажная-область1" serif:id="Монтажная область1">
        <g id="Линии">
            <g transform="matrix(1.03648,0,0,2.99429,-7.36264,-85.4048)">
                <path d="M200.064,70.269C200.064,69.516 199.2,68.794 197.662,68.261C196.124,67.729 194.038,67.43 191.863,67.43C166.417,67.43 88.99,67.43 63.544,67.43C61.369,67.43 59.283,67.729 57.745,68.261C56.208,68.794 55.344,69.516 55.344,70.269C55.344,71.022 56.208,71.744 57.745,72.276C59.283,72.808 61.369,73.108 63.544,73.108C88.99,73.108 166.417,73.108 191.863,73.108C194.038,73.108 196.124,72.808 197.662,72.276C199.2,71.744 200.064,71.022 200.064,70.269C200.064,70.269 200.064,70.269 200.064,70.269Z" style="fill:rgb(243,243,243);stroke:rgb(38,38,38);stroke-width:0.44px;"/>
            </g>
            <g transform="matrix(1.03648,0,0,2.99429,-7.36264,-48.4048)">
                <path d="M200.064,70.269C200.064,69.516 199.2,68.794 197.662,68.261C196.124,67.729 194.038,67.43 191.863,67.43C166.417,67.43 88.99,67.43 63.544,67.43C61.369,67.43 59.283,67.729 57.745,68.261C56.208,68.794 55.344,69.516 55.344,70.269C55.344,71.022 56.208,71.744 57.745,72.276C59.283,72.808 61.369,73.108 63.544,73.108C88.99,73.108 166.417,73.108 191.863,73.108C194.038,73.108 196.124,72.808 197.662,72.276C199.2,71.744 200.064,71.022 200.064,70.269C200.064,70.269 200.064,70.269 200.064,70.269Z" style="fill:rgb(243,243,243);stroke:rgb(38,38,38);stroke-width:0.44px;"/>
            </g>
            <g transform="matrix(1.03648,0,0,2.99429,-7.36264,-122.405)">
                <path d="M200.064,70.269C200.064,69.516 199.2,68.794 197.662,68.261C196.124,67.729 194.038,67.43 191.863,67.43C166.417,67.43 88.99,67.43 63.544,67.43C61.369,67.43 59.283,67.729 57.745,68.261C56.208,68.794 55.344,69.516 55.344,70.269C55.344,71.022 56.208,71.744 57.745,72.276C59.283,72.808 61.369,73.108 63.544,73.108C88.99,73.108 166.417,73.108 191.863,73.108C194.038,73.108 196.124,72.808 197.662,72.276C199.2,71.744 200.064,71.022 200.064,70.269C200.064,70.269 200.064,70.269 200.064,70.269Z" style="fill:rgb(243,243,243);stroke:rgb(38,38,38);stroke-width:0.44px;"/>
            </g>
        </g>
    </g>
</svg>
